solid npmjs
  facet normal 0e+0 0e+0 -1e+0
    outer loop
      vertex 4.5e+1 -1e+1 0e+0
      vertex 4.5e+1 -2e+1 0e+0
      vertex 4e+1 -2e+1 0e+0
    endloop
  endfacet
  facet normal 0e+0 0e+0 -1e+0
    outer loop
      vertex 4e+1 -2e+1 0e+0
      vertex 4e+1 -1e+1 0e+0
      vertex 4.5e+1 -1e+1 0e+0
    endloop
  endfacet
  facet normal 0e+0 0e+0 1e+0
    outer loop
      vertex 4e+1 -2e+1 1e+1
      vertex 4.5e+1 -2e+1 1e+1
      vertex 4.5e+1 -1e+1 1e+1
    endloop
  endfacet
  facet normal 0e+0 0e+0 1e+0
    outer loop
      vertex 4.5e+1 -1e+1 1e+1
      vertex 4e+1 -1e+1 1e+1
      vertex 4e+1 -2e+1 1e+1
    endloop
  endfacet
  facet normal 1e+0 0e+0 0e+0
    outer loop
      vertex 4.5e+1 -2e+1 0e+0
      vertex 4.5e+1 -1e+1 0e+0
      vertex 4.5e+1 -2e+1 1e+1
    endloop
  endfacet
  facet normal 1e+0 0e+0 0e+0
    outer loop
      vertex 4.5e+1 -1e+1 0e+0
      vertex 4.5e+1 -1e+1 1e+1
      vertex 4.5e+1 -2e+1 1e+1
    endloop
  endfacet
  facet normal 0e+0 1e+0 0e+0
    outer loop
      vertex 4.5e+1 -1e+1 0e+0
      vertex 4e+1 -1e+1 0e+0
      vertex 4.5e+1 -1e+1 1e+1
    endloop
  endfacet
  facet normal 0e+0 1e+0 0e+0
    outer loop
      vertex 4e+1 -1e+1 0e+0
      vertex 4e+1 -1e+1 1e+1
      vertex 4.5e+1 -1e+1 1e+1
    endloop
  endfacet
  facet normal -1e+0 0e+0 0e+0
    outer loop
      vertex 4e+1 -1e+1 0e+0
      vertex 4e+1 -2e+1 0e+0
      vertex 4e+1 -1e+1 1e+1
    endloop
  endfacet
  facet normal -1e+0 0e+0 0e+0
    outer loop
      vertex 4e+1 -2e+1 0e+0
      vertex 4e+1 -2e+1 1e+1
      vertex 4e+1 -1e+1 1e+1
    endloop
  endfacet
  facet normal 0e+0 -1e+0 0e+0
    outer loop
      vertex 4e+1 -2e+1 0e+0
      vertex 4.5e+1 -2e+1 0e+0
      vertex 4e+1 -2e+1 1e+1
    endloop
  endfacet
  facet normal 0e+0 -1e+0 0e+0
    outer loop
      vertex 4.5e+1 -2e+1 0e+0
      vertex 4.5e+1 -2e+1 1e+1
      vertex 4e+1 -2e+1 1e+1
    endloop
  endfacet
  facet normal 0e+0 0e+0 -1e+0
    outer loop
      vertex 4.5e+1 -1e+1 0e+0
      vertex 4.5e+1 -2e+1 0e+0
      vertex 4e+1 -2e+1 0e+0
    endloop
  endfacet
  facet normal 0e+0 0e+0 -1e+0
    outer loop
      vertex 4e+1 -2e+1 0e+0
      vertex 4e+1 -1e+1 0e+0
      vertex 4.5e+1 -1e+1 0e+0
    endloop
  endfacet
  facet normal 0e+0 0e+0 1e+0
    outer loop
      vertex 4e+1 -2e+1 1e+1
      vertex 4.5e+1 -2e+1 1e+1
      vertex 4.5e+1 -1e+1 1e+1
    endloop
  endfacet
  facet normal 0e+0 0e+0 1e+0
    outer loop
      vertex 4.5e+1 -1e+1 1e+1
      vertex 4e+1 -1e+1 1e+1
      vertex 4e+1 -2e+1 1e+1
    endloop
  endfacet
  facet normal 1e+0 0e+0 0e+0
    outer loop
      vertex 4.5e+1 -2e+1 0e+0
      vertex 4.5e+1 -1e+1 0e+0
      vertex 4.5e+1 -2e+1 1e+1
    endloop
  endfacet
  facet normal 1e+0 0e+0 0e+0
    outer loop
      vertex 4.5e+1 -1e+1 0e+0
      vertex 4.5e+1 -1e+1 1e+1
      vertex 4.5e+1 -2e+1 1e+1
    endloop
  endfacet
  facet normal 0e+0 1e+0 0e+0
    outer loop
      vertex 4.5e+1 -1e+1 0e+0
      vertex 4e+1 -1e+1 0e+0
      vertex 4.5e+1 -1e+1 1e+1
    endloop
  endfacet
  facet normal 0e+0 1e+0 0e+0
    outer loop
      vertex 4e+1 -1e+1 0e+0
      vertex 4e+1 -1e+1 1e+1
      vertex 4.5e+1 -1e+1 1e+1
    endloop
  endfacet
  facet normal -1e+0 0e+0 0e+0
    outer loop
      vertex 4e+1 -1e+1 0e+0
      vertex 4e+1 -2e+1 0e+0
      vertex 4e+1 -1e+1 1e+1
    endloop
  endfacet
  facet normal -1e+0 0e+0 0e+0
    outer loop
      vertex 4e+1 -2e+1 0e+0
      vertex 4e+1 -2e+1 1e+1
      vertex 4e+1 -1e+1 1e+1
    endloop
  endfacet
  facet normal 0e+0 -1e+0 0e+0
    outer loop
      vertex 4e+1 -2e+1 0e+0
      vertex 4.5e+1 -2e+1 0e+0
      vertex 4e+1 -2e+1 1e+1
    endloop
  endfacet
  facet normal 0e+0 -1e+0 0e+0
    outer loop
      vertex 4.5e+1 -2e+1 0e+0
      vertex 4.5e+1 -2e+1 1e+1
      vertex 4e+1 -2e+1 1e+1
    endloop
  endfacet
  facet normal 0e+0 0e+0 -1e+0
    outer loop
      vertex 5e+0 -2.5e+1 0e+0
      vertex 3e+1 -3e+1 0e+0
      vertex 0e+0 -3e+1 0e+0
    endloop
  endfacet
  facet normal 0e+0 0e+0 -1e+0
    outer loop
      vertex 2e+1 -2e+1 0e+0
      vertex 1.5e+1 -2e+1 0e+0
      vertex 1.5e+1 -5e+0 0e+0
    endloop
  endfacet
  facet normal 0e+0 0e+0 -1e+0
    outer loop
      vertex 3e+1 -3e+1 0e+0
      vertex 5e+0 -2.5e+1 0e+0
      vertex 2.5e+1 -2.5e+1 0e+0
    endloop
  endfacet
  facet normal 0e+0 0e+0 -1e+0
    outer loop
      vertex 5e+0 -2.5e+1 0e+0
      vertex 0e+0 -3e+1 0e+0
      vertex 0e+0 0e+0 0e+0
    endloop
  endfacet
  facet normal 0e+0 0e+0 -1e+0
    outer loop
      vertex 2e+1 -5e+0 0e+0
      vertex 2e+1 -2e+1 0e+0
      vertex 1.5e+1 -5e+0 0e+0
    endloop
  endfacet
  facet normal 0e+0 0e+0 -1e+0
    outer loop
      vertex 3e+1 -3e+1 0e+0
      vertex 2.5e+1 -2.5e+1 0e+0
      vertex 2.5e+1 -5e+0 0e+0
    endloop
  endfacet
  facet normal 0e+0 0e+0 -1e+0
    outer loop
      vertex 5e+0 -5e+0 0e+0
      vertex 5e+0 -2.5e+1 0e+0
      vertex 0e+0 0e+0 0e+0
    endloop
  endfacet
  facet normal 0e+0 0e+0 -1e+0
    outer loop
      vertex 3e+1 0e+0 0e+0
      vertex 3e+1 -3e+1 0e+0
      vertex 2.5e+1 -5e+0 0e+0
    endloop
  endfacet
  facet normal 0e+0 0e+0 -1e+0
    outer loop
      vertex 5e+0 -5e+0 0e+0
      vertex 0e+0 0e+0 0e+0
      vertex 3e+1 0e+0 0e+0
    endloop
  endfacet
  facet normal 0e+0 0e+0 -1e+0
    outer loop
      vertex 3e+1 0e+0 0e+0
      vertex 2.5e+1 -5e+0 0e+0
      vertex 2e+1 -5e+0 0e+0
    endloop
  endfacet
  facet normal 0e+0 0e+0 -1e+0
    outer loop
      vertex 1.5e+1 -5e+0 0e+0
      vertex 5e+0 -5e+0 0e+0
      vertex 3e+1 0e+0 0e+0
    endloop
  endfacet
  facet normal 0e+0 0e+0 -1e+0
    outer loop
      vertex 3e+1 0e+0 0e+0
      vertex 2e+1 -5e+0 0e+0
      vertex 1.5e+1 -5e+0 0e+0
    endloop
  endfacet
  facet normal 0e+0 0e+0 1e+0
    outer loop
      vertex 0e+0 -3e+1 1e+1
      vertex 3e+1 -3e+1 1e+1
      vertex 5e+0 -2.5e+1 1e+1
    endloop
  endfacet
  facet normal 0e+0 0e+0 1e+0
    outer loop
      vertex 1.5e+1 -5e+0 1e+1
      vertex 1.5e+1 -2e+1 1e+1
      vertex 2e+1 -2e+1 1e+1
    endloop
  endfacet
  facet normal 0e+0 0e+0 1e+0
    outer loop
      vertex 2.5e+1 -2.5e+1 1e+1
      vertex 5e+0 -2.5e+1 1e+1
      vertex 3e+1 -3e+1 1e+1
    endloop
  endfacet
  facet normal 0e+0 0e+0 1e+0
    outer loop
      vertex 0e+0 0e+0 1e+1
      vertex 0e+0 -3e+1 1e+1
      vertex 5e+0 -2.5e+1 1e+1
    endloop
  endfacet
  facet normal 0e+0 0e+0 1e+0
    outer loop
      vertex 1.5e+1 -5e+0 1e+1
      vertex 2e+1 -2e+1 1e+1
      vertex 2e+1 -5e+0 1e+1
    endloop
  endfacet
  facet normal 0e+0 0e+0 1e+0
    outer loop
      vertex 2.5e+1 -5e+0 1e+1
      vertex 2.5e+1 -2.5e+1 1e+1
      vertex 3e+1 -3e+1 1e+1
    endloop
  endfacet
  facet normal 0e+0 0e+0 1e+0
    outer loop
      vertex 0e+0 0e+0 1e+1
      vertex 5e+0 -2.5e+1 1e+1
      vertex 5e+0 -5e+0 1e+1
    endloop
  endfacet
  facet normal 0e+0 0e+0 1e+0
    outer loop
      vertex 2.5e+1 -5e+0 1e+1
      vertex 3e+1 -3e+1 1e+1
      vertex 3e+1 0e+0 1e+1
    endloop
  endfacet
  facet normal 0e+0 0e+0 1e+0
    outer loop
      vertex 3e+1 0e+0 1e+1
      vertex 0e+0 0e+0 1e+1
      vertex 5e+0 -5e+0 1e+1
    endloop
  endfacet
  facet normal 0e+0 0e+0 1e+0
    outer loop
      vertex 2e+1 -5e+0 1e+1
      vertex 2.5e+1 -5e+0 1e+1
      vertex 3e+1 0e+0 1e+1
    endloop
  endfacet
  facet normal 0e+0 0e+0 1e+0
    outer loop
      vertex 3e+1 0e+0 1e+1
      vertex 5e+0 -5e+0 1e+1
      vertex 1.5e+1 -5e+0 1e+1
    endloop
  endfacet
  facet normal 0e+0 0e+0 1e+0
    outer loop
      vertex 1.5e+1 -5e+0 1e+1
      vertex 2e+1 -5e+0 1e+1
      vertex 3e+1 0e+0 1e+1
    endloop
  endfacet
  facet normal 0e+0 1e+0 0e+0
    outer loop
      vertex 3e+1 0e+0 0e+0
      vertex 0e+0 0e+0 0e+0
      vertex 3e+1 0e+0 1e+1
    endloop
  endfacet
  facet normal 0e+0 1e+0 0e+0
    outer loop
      vertex 0e+0 0e+0 0e+0
      vertex 0e+0 0e+0 1e+1
      vertex 3e+1 0e+0 1e+1
    endloop
  endfacet
  facet normal -1e+0 0e+0 0e+0
    outer loop
      vertex 0e+0 0e+0 0e+0
      vertex 0e+0 -3e+1 0e+0
      vertex 0e+0 0e+0 1e+1
    endloop
  endfacet
  facet normal -1e+0 0e+0 0e+0
    outer loop
      vertex 0e+0 -3e+1 0e+0
      vertex 0e+0 -3e+1 1e+1
      vertex 0e+0 0e+0 1e+1
    endloop
  endfacet
  facet normal 0e+0 -1e+0 0e+0
    outer loop
      vertex 0e+0 -3e+1 0e+0
      vertex 3e+1 -3e+1 0e+0
      vertex 0e+0 -3e+1 1e+1
    endloop
  endfacet
  facet normal 0e+0 -1e+0 0e+0
    outer loop
      vertex 3e+1 -3e+1 0e+0
      vertex 3e+1 -3e+1 1e+1
      vertex 0e+0 -3e+1 1e+1
    endloop
  endfacet
  facet normal 1e+0 0e+0 0e+0
    outer loop
      vertex 3e+1 -3e+1 0e+0
      vertex 3e+1 0e+0 0e+0
      vertex 3e+1 -3e+1 1e+1
    endloop
  endfacet
  facet normal 1e+0 0e+0 0e+0
    outer loop
      vertex 3e+1 0e+0 0e+0
      vertex 3e+1 0e+0 1e+1
      vertex 3e+1 -3e+1 1e+1
    endloop
  endfacet
  facet normal 0e+0 -1e+0 0e+0
    outer loop
      vertex 5e+0 -5e+0 0e+0
      vertex 1.5e+1 -5e+0 0e+0
      vertex 5e+0 -5e+0 1e+1
    endloop
  endfacet
  facet normal 0e+0 -1e+0 0e+0
    outer loop
      vertex 1.5e+1 -5e+0 0e+0
      vertex 1.5e+1 -5e+0 1e+1
      vertex 5e+0 -5e+0 1e+1
    endloop
  endfacet
  facet normal -1e+0 0e+0 0e+0
    outer loop
      vertex 1.5e+1 -5e+0 0e+0
      vertex 1.5e+1 -2e+1 0e+0
      vertex 1.5e+1 -5e+0 1e+1
    endloop
  endfacet
  facet normal -1e+0 0e+0 0e+0
    outer loop
      vertex 1.5e+1 -2e+1 0e+0
      vertex 1.5e+1 -2e+1 1e+1
      vertex 1.5e+1 -5e+0 1e+1
    endloop
  endfacet
  facet normal 0e+0 -1e+0 0e+0
    outer loop
      vertex 1.5e+1 -2e+1 0e+0
      vertex 2e+1 -2e+1 0e+0
      vertex 1.5e+1 -2e+1 1e+1
    endloop
  endfacet
  facet normal 0e+0 -1e+0 0e+0
    outer loop
      vertex 2e+1 -2e+1 0e+0
      vertex 2e+1 -2e+1 1e+1
      vertex 1.5e+1 -2e+1 1e+1
    endloop
  endfacet
  facet normal 1e+0 0e+0 0e+0
    outer loop
      vertex 2e+1 -2e+1 0e+0
      vertex 2e+1 -5e+0 0e+0
      vertex 2e+1 -2e+1 1e+1
    endloop
  endfacet
  facet normal 1e+0 0e+0 0e+0
    outer loop
      vertex 2e+1 -5e+0 0e+0
      vertex 2e+1 -5e+0 1e+1
      vertex 2e+1 -2e+1 1e+1
    endloop
  endfacet
  facet normal 0e+0 -1e+0 0e+0
    outer loop
      vertex 2e+1 -5e+0 0e+0
      vertex 2.5e+1 -5e+0 0e+0
      vertex 2e+1 -5e+0 1e+1
    endloop
  endfacet
  facet normal 0e+0 -1e+0 0e+0
    outer loop
      vertex 2.5e+1 -5e+0 0e+0
      vertex 2.5e+1 -5e+0 1e+1
      vertex 2e+1 -5e+0 1e+1
    endloop
  endfacet
  facet normal -1e+0 0e+0 0e+0
    outer loop
      vertex 2.5e+1 -5e+0 0e+0
      vertex 2.5e+1 -2.5e+1 0e+0
      vertex 2.5e+1 -5e+0 1e+1
    endloop
  endfacet
  facet normal -1e+0 0e+0 0e+0
    outer loop
      vertex 2.5e+1 -2.5e+1 0e+0
      vertex 2.5e+1 -2.5e+1 1e+1
      vertex 2.5e+1 -5e+0 1e+1
    endloop
  endfacet
  facet normal 0e+0 1e+0 0e+0
    outer loop
      vertex 2.5e+1 -2.5e+1 0e+0
      vertex 5e+0 -2.5e+1 0e+0
      vertex 2.5e+1 -2.5e+1 1e+1
    endloop
  endfacet
  facet normal 0e+0 1e+0 0e+0
    outer loop
      vertex 5e+0 -2.5e+1 0e+0
      vertex 5e+0 -2.5e+1 1e+1
      vertex 2.5e+1 -2.5e+1 1e+1
    endloop
  endfacet
  facet normal 1e+0 0e+0 0e+0
    outer loop
      vertex 5e+0 -2.5e+1 0e+0
      vertex 5e+0 -5e+0 0e+0
      vertex 5e+0 -2.5e+1 1e+1
    endloop
  endfacet
  facet normal 1e+0 0e+0 0e+0
    outer loop
      vertex 5e+0 -5e+0 0e+0
      vertex 5e+0 -5e+0 1e+1
      vertex 5e+0 -2.5e+1 1e+1
    endloop
  endfacet
  facet normal 0e+0 0e+0 -1e+0
    outer loop
      vertex 2.5e+1 5e+0 0e+0
      vertex 4.5e+1 5e+0 0e+0
      vertex 4.5e+1 0e+0 0e+0
    endloop
  endfacet
  facet normal 0e+0 0e+0 -1e+0
    outer loop
      vertex 3e+1 -2.5e+1 0e+0
      vertex 5.5e+1 -3e+1 0e+0
      vertex 2.5e+1 -3e+1 0e+0
    endloop
  endfacet
  facet normal 0e+0 0e+0 -1e+0
    outer loop
      vertex 5e+1 -5e+0 0e+0
      vertex 4e+1 -5e+0 0e+0
      vertex 4e+1 0e+0 0e+0
    endloop
  endfacet
  facet normal 0e+0 0e+0 -1e+0
    outer loop
      vertex 5.5e+1 -3e+1 0e+0
      vertex 3e+1 -2.5e+1 0e+0
      vertex 5e+1 -2.5e+1 0e+0
    endloop
  endfacet
  facet normal 0e+0 0e+0 -1e+0
    outer loop
      vertex 3e+1 -2.5e+1 0e+0
      vertex 2.5e+1 -3e+1 0e+0
      vertex 2.5e+1 5e+0 0e+0
    endloop
  endfacet
  facet normal 0e+0 0e+0 -1e+0
    outer loop
      vertex 5.5e+1 -3e+1 0e+0
      vertex 5e+1 -2.5e+1 0e+0
      vertex 5e+1 -5e+0 0e+0
    endloop
  endfacet
  facet normal 0e+0 0e+0 -1e+0
    outer loop
      vertex 3e+1 0e+0 0e+0
      vertex 3e+1 -2.5e+1 0e+0
      vertex 2.5e+1 5e+0 0e+0
    endloop
  endfacet
  facet normal 0e+0 0e+0 -1e+0
    outer loop
      vertex 5.5e+1 0e+0 0e+0
      vertex 5.5e+1 -3e+1 0e+0
      vertex 5e+1 -5e+0 0e+0
    endloop
  endfacet
  facet normal 0e+0 0e+0 -1e+0
    outer loop
      vertex 4e+1 0e+0 0e+0
      vertex 3e+1 0e+0 0e+0
      vertex 2.5e+1 5e+0 0e+0
    endloop
  endfacet
  facet normal 0e+0 0e+0 -1e+0
    outer loop
      vertex 4.5e+1 0e+0 0e+0
      vertex 5.5e+1 0e+0 0e+0
      vertex 5e+1 -5e+0 0e+0
    endloop
  endfacet
  facet normal 0e+0 0e+0 -1e+0
    outer loop
      vertex 4e+1 0e+0 0e+0
      vertex 2.5e+1 5e+0 0e+0
      vertex 4.5e+1 0e+0 0e+0
    endloop
  endfacet
  facet normal 0e+0 0e+0 -1e+0
    outer loop
      vertex 4.5e+1 0e+0 0e+0
      vertex 5e+1 -5e+0 0e+0
      vertex 4e+1 0e+0 0e+0
    endloop
  endfacet
  facet normal 0e+0 0e+0 1e+0
    outer loop
      vertex 4.5e+1 0e+0 1e+1
      vertex 4.5e+1 5e+0 1e+1
      vertex 2.5e+1 5e+0 1e+1
    endloop
  endfacet
  facet normal 0e+0 0e+0 1e+0
    outer loop
      vertex 2.5e+1 -3e+1 1e+1
      vertex 5.5e+1 -3e+1 1e+1
      vertex 3e+1 -2.5e+1 1e+1
    endloop
  endfacet
  facet normal 0e+0 0e+0 1e+0
    outer loop
      vertex 4e+1 0e+0 1e+1
      vertex 4e+1 -5e+0 1e+1
      vertex 5e+1 -5e+0 1e+1
    endloop
  endfacet
  facet normal 0e+0 0e+0 1e+0
    outer loop
      vertex 5e+1 -2.5e+1 1e+1
      vertex 3e+1 -2.5e+1 1e+1
      vertex 5.5e+1 -3e+1 1e+1
    endloop
  endfacet
  facet normal 0e+0 0e+0 1e+0
    outer loop
      vertex 2.5e+1 5e+0 1e+1
      vertex 2.5e+1 -3e+1 1e+1
      vertex 3e+1 -2.5e+1 1e+1
    endloop
  endfacet
  facet normal 0e+0 0e+0 1e+0
    outer loop
      vertex 5e+1 -5e+0 1e+1
      vertex 5e+1 -2.5e+1 1e+1
      vertex 5.5e+1 -3e+1 1e+1
    endloop
  endfacet
  facet normal 0e+0 0e+0 1e+0
    outer loop
      vertex 2.5e+1 5e+0 1e+1
      vertex 3e+1 -2.5e+1 1e+1
      vertex 3e+1 0e+0 1e+1
    endloop
  endfacet
  facet normal 0e+0 0e+0 1e+0
    outer loop
      vertex 5e+1 -5e+0 1e+1
      vertex 5.5e+1 -3e+1 1e+1
      vertex 5.5e+1 0e+0 1e+1
    endloop
  endfacet
  facet normal 0e+0 0e+0 1e+0
    outer loop
      vertex 2.5e+1 5e+0 1e+1
      vertex 3e+1 0e+0 1e+1
      vertex 4e+1 0e+0 1e+1
    endloop
  endfacet
  facet normal 0e+0 0e+0 1e+0
    outer loop
      vertex 5e+1 -5e+0 1e+1
      vertex 5.5e+1 0e+0 1e+1
      vertex 4.5e+1 0e+0 1e+1
    endloop
  endfacet
  facet normal 0e+0 0e+0 1e+0
    outer loop
      vertex 4.5e+1 0e+0 1e+1
      vertex 2.5e+1 5e+0 1e+1
      vertex 4e+1 0e+0 1e+1
    endloop
  endfacet
  facet normal 0e+0 0e+0 1e+0
    outer loop
      vertex 4e+1 0e+0 1e+1
      vertex 5e+1 -5e+0 1e+1
      vertex 4.5e+1 0e+0 1e+1
    endloop
  endfacet
  facet normal 0e+0 1e+0 0e+0
    outer loop
      vertex 5.5e+1 0e+0 0e+0
      vertex 4.5e+1 0e+0 0e+0
      vertex 5.5e+1 0e+0 1e+1
    endloop
  endfacet
  facet normal 0e+0 1e+0 0e+0
    outer loop
      vertex 4.5e+1 0e+0 0e+0
      vertex 4.5e+1 0e+0 1e+1
      vertex 5.5e+1 0e+0 1e+1
    endloop
  endfacet
  facet normal 1e+0 0e+0 0e+0
    outer loop
      vertex 4.5e+1 0e+0 0e+0
      vertex 4.5e+1 5e+0 0e+0
      vertex 4.5e+1 0e+0 1e+1
    endloop
  endfacet
  facet normal 1e+0 0e+0 0e+0
    outer loop
      vertex 4.5e+1 5e+0 0e+0
      vertex 4.5e+1 5e+0 1e+1
      vertex 4.5e+1 0e+0 1e+1
    endloop
  endfacet
  facet normal 0e+0 1e+0 0e+0
    outer loop
      vertex 4.5e+1 5e+0 0e+0
      vertex 2.5e+1 5e+0 0e+0
      vertex 4.5e+1 5e+0 1e+1
    endloop
  endfacet
  facet normal 0e+0 1e+0 0e+0
    outer loop
      vertex 2.5e+1 5e+0 0e+0
      vertex 2.5e+1 5e+0 1e+1
      vertex 4.5e+1 5e+0 1e+1
    endloop
  endfacet
  facet normal -1e+0 0e+0 0e+0
    outer loop
      vertex 2.5e+1 5e+0 0e+0
      vertex 2.5e+1 -3e+1 0e+0
      vertex 2.5e+1 5e+0 1e+1
    endloop
  endfacet
  facet normal -1e+0 0e+0 0e+0
    outer loop
      vertex 2.5e+1 -3e+1 0e+0
      vertex 2.5e+1 -3e+1 1e+1
      vertex 2.5e+1 5e+0 1e+1
    endloop
  endfacet
  facet normal 0e+0 -1e+0 0e+0
    outer loop
      vertex 2.5e+1 -3e+1 0e+0
      vertex 5.5e+1 -3e+1 0e+0
      vertex 2.5e+1 -3e+1 1e+1
    endloop
  endfacet
  facet normal 0e+0 -1e+0 0e+0
    outer loop
      vertex 5.5e+1 -3e+1 0e+0
      vertex 5.5e+1 -3e+1 1e+1
      vertex 2.5e+1 -3e+1 1e+1
    endloop
  endfacet
  facet normal 1e+0 0e+0 0e+0
    outer loop
      vertex 5.5e+1 -3e+1 0e+0
      vertex 5.5e+1 0e+0 0e+0
      vertex 5.5e+1 -3e+1 1e+1
    endloop
  endfacet
  facet normal 1e+0 0e+0 0e+0
    outer loop
      vertex 5.5e+1 0e+0 0e+0
      vertex 5.5e+1 0e+0 1e+1
      vertex 5.5e+1 -3e+1 1e+1
    endloop
  endfacet
  facet normal 0e+0 -1e+0 0e+0
    outer loop
      vertex 3e+1 0e+0 0e+0
      vertex 4e+1 0e+0 0e+0
      vertex 3e+1 0e+0 1e+1
    endloop
  endfacet
  facet normal 0e+0 -1e+0 0e+0
    outer loop
      vertex 4e+1 0e+0 0e+0
      vertex 4e+1 0e+0 1e+1
      vertex 3e+1 0e+0 1e+1
    endloop
  endfacet
  facet normal -1e+0 0e+0 0e+0
    outer loop
      vertex 4e+1 0e+0 0e+0
      vertex 4e+1 -5e+0 0e+0
      vertex 4e+1 0e+0 1e+1
    endloop
  endfacet
  facet normal -1e+0 0e+0 0e+0
    outer loop
      vertex 4e+1 -5e+0 0e+0
      vertex 4e+1 -5e+0 1e+1
      vertex 4e+1 0e+0 1e+1
    endloop
  endfacet
  facet normal 0e+0 -1e+0 0e+0
    outer loop
      vertex 4e+1 -5e+0 0e+0
      vertex 5e+1 -5e+0 0e+0
      vertex 4e+1 -5e+0 1e+1
    endloop
  endfacet
  facet normal 0e+0 -1e+0 0e+0
    outer loop
      vertex 5e+1 -5e+0 0e+0
      vertex 5e+1 -5e+0 1e+1
      vertex 4e+1 -5e+0 1e+1
    endloop
  endfacet
  facet normal -1e+0 0e+0 0e+0
    outer loop
      vertex 5e+1 -5e+0 0e+0
      vertex 5e+1 -2.5e+1 0e+0
      vertex 5e+1 -5e+0 1e+1
    endloop
  endfacet
  facet normal -1e+0 0e+0 0e+0
    outer loop
      vertex 5e+1 -2.5e+1 0e+0
      vertex 5e+1 -2.5e+1 1e+1
      vertex 5e+1 -5e+0 1e+1
    endloop
  endfacet
  facet normal 0e+0 1e+0 0e+0
    outer loop
      vertex 5e+1 -2.5e+1 0e+0
      vertex 3e+1 -2.5e+1 0e+0
      vertex 5e+1 -2.5e+1 1e+1
    endloop
  endfacet
  facet normal 0e+0 1e+0 0e+0
    outer loop
      vertex 3e+1 -2.5e+1 0e+0
      vertex 3e+1 -2.5e+1 1e+1
      vertex 5e+1 -2.5e+1 1e+1
    endloop
  endfacet
  facet normal 1e+0 0e+0 0e+0
    outer loop
      vertex 3e+1 -2.5e+1 0e+0
      vertex 3e+1 0e+0 0e+0
      vertex 3e+1 -2.5e+1 1e+1
    endloop
  endfacet
  facet normal 1e+0 0e+0 0e+0
    outer loop
      vertex 3e+1 0e+0 0e+0
      vertex 3e+1 0e+0 1e+1
      vertex 3e+1 -2.5e+1 1e+1
    endloop
  endfacet
  facet normal 0e+0 0e+0 -1e+0
    outer loop
      vertex 5.5e+1 -5e+0 0e+0
      vertex 5.5e+1 -2.5e+1 0e+0
      vertex 5e+1 0e+0 0e+0
    endloop
  endfacet
  facet normal 0e+0 0e+0 -1e+0
    outer loop
      vertex 7e+1 -2e+1 0e+0
      vertex 6.5e+1 -2e+1 0e+0
      vertex 6.5e+1 -5e+0 0e+0
    endloop
  endfacet
  facet normal 0e+0 0e+0 -1e+0
    outer loop
      vertex 8e+1 -2e+1 0e+0
      vertex 7.5e+1 -2e+1 0e+0
      vertex 7.5e+1 -5e+0 0e+0
    endloop
  endfacet
  facet normal 0e+0 0e+0 -1e+0
    outer loop
      vertex 5e+1 -3e+1 0e+0
      vertex 5e+1 0e+0 0e+0
      vertex 5.5e+1 -2.5e+1 0e+0
    endloop
  endfacet
  facet normal 0e+0 0e+0 -1e+0
    outer loop
      vertex 5.5e+1 -5e+0 0e+0
      vertex 5e+1 0e+0 0e+0
      vertex 9e+1 0e+0 0e+0
    endloop
  endfacet
  facet normal 0e+0 0e+0 -1e+0
    outer loop
      vertex 7e+1 -5e+0 0e+0
      vertex 7e+1 -2e+1 0e+0
      vertex 6.5e+1 -5e+0 0e+0
    endloop
  endfacet
  facet normal 0e+0 0e+0 -1e+0
    outer loop
      vertex 8e+1 -5e+0 0e+0
      vertex 8e+1 -2e+1 0e+0
      vertex 7.5e+1 -5e+0 0e+0
    endloop
  endfacet
  facet normal 0e+0 0e+0 -1e+0
    outer loop
      vertex 5e+1 -3e+1 0e+0
      vertex 5.5e+1 -2.5e+1 0e+0
      vertex 8.5e+1 -2.5e+1 0e+0
    endloop
  endfacet
  facet normal 0e+0 0e+0 -1e+0
    outer loop
      vertex 6.5e+1 -5e+0 0e+0
      vertex 5.5e+1 -5e+0 0e+0
      vertex 9e+1 0e+0 0e+0
    endloop
  endfacet
  facet normal 0e+0 0e+0 -1e+0
    outer loop
      vertex 9e+1 -3e+1 0e+0
      vertex 5e+1 -3e+1 0e+0
      vertex 8.5e+1 -2.5e+1 0e+0
    endloop
  endfacet
  facet normal 0e+0 0e+0 -1e+0
    outer loop
      vertex 7e+1 -5e+0 0e+0
      vertex 6.5e+1 -5e+0 0e+0
      vertex 9e+1 0e+0 0e+0
    endloop
  endfacet
  facet normal 0e+0 0e+0 -1e+0
    outer loop
      vertex 9e+1 -3e+1 0e+0
      vertex 8.5e+1 -2.5e+1 0e+0
      vertex 8.5e+1 -5e+0 0e+0
    endloop
  endfacet
  facet normal 0e+0 0e+0 -1e+0
    outer loop
      vertex 7.5e+1 -5e+0 0e+0
      vertex 7e+1 -5e+0 0e+0
      vertex 9e+1 0e+0 0e+0
    endloop
  endfacet
  facet normal 0e+0 0e+0 -1e+0
    outer loop
      vertex 9e+1 0e+0 0e+0
      vertex 9e+1 -3e+1 0e+0
      vertex 8.5e+1 -5e+0 0e+0
    endloop
  endfacet
  facet normal 0e+0 0e+0 -1e+0
    outer loop
      vertex 8e+1 -5e+0 0e+0
      vertex 7.5e+1 -5e+0 0e+0
      vertex 9e+1 0e+0 0e+0
    endloop
  endfacet
  facet normal 0e+0 0e+0 -1e+0
    outer loop
      vertex 9e+1 0e+0 0e+0
      vertex 8.5e+1 -5e+0 0e+0
      vertex 8e+1 -5e+0 0e+0
    endloop
  endfacet
  facet normal 0e+0 0e+0 1e+0
    outer loop
      vertex 5e+1 0e+0 1e+1
      vertex 5.5e+1 -2.5e+1 1e+1
      vertex 5.5e+1 -5e+0 1e+1
    endloop
  endfacet
  facet normal 0e+0 0e+0 1e+0
    outer loop
      vertex 6.5e+1 -5e+0 1e+1
      vertex 6.5e+1 -2e+1 1e+1
      vertex 7e+1 -2e+1 1e+1
    endloop
  endfacet
  facet normal 0e+0 0e+0 1e+0
    outer loop
      vertex 7.5e+1 -5e+0 1e+1
      vertex 7.5e+1 -2e+1 1e+1
      vertex 8e+1 -2e+1 1e+1
    endloop
  endfacet
  facet normal 0e+0 0e+0 1e+0
    outer loop
      vertex 5.5e+1 -2.5e+1 1e+1
      vertex 5e+1 0e+0 1e+1
      vertex 5e+1 -3e+1 1e+1
    endloop
  endfacet
  facet normal 0e+0 0e+0 1e+0
    outer loop
      vertex 9e+1 0e+0 1e+1
      vertex 5e+1 0e+0 1e+1
      vertex 5.5e+1 -5e+0 1e+1
    endloop
  endfacet
  facet normal 0e+0 0e+0 1e+0
    outer loop
      vertex 6.5e+1 -5e+0 1e+1
      vertex 7e+1 -2e+1 1e+1
      vertex 7e+1 -5e+0 1e+1
    endloop
  endfacet
  facet normal 0e+0 0e+0 1e+0
    outer loop
      vertex 7.5e+1 -5e+0 1e+1
      vertex 8e+1 -2e+1 1e+1
      vertex 8e+1 -5e+0 1e+1
    endloop
  endfacet
  facet normal 0e+0 0e+0 1e+0
    outer loop
      vertex 8.5e+1 -2.5e+1 1e+1
      vertex 5.5e+1 -2.5e+1 1e+1
      vertex 5e+1 -3e+1 1e+1
    endloop
  endfacet
  facet normal 0e+0 0e+0 1e+0
    outer loop
      vertex 9e+1 0e+0 1e+1
      vertex 5.5e+1 -5e+0 1e+1
      vertex 6.5e+1 -5e+0 1e+1
    endloop
  endfacet
  facet normal 0e+0 0e+0 1e+0
    outer loop
      vertex 8.5e+1 -2.5e+1 1e+1
      vertex 5e+1 -3e+1 1e+1
      vertex 9e+1 -3e+1 1e+1
    endloop
  endfacet
  facet normal 0e+0 0e+0 1e+0
    outer loop
      vertex 9e+1 0e+0 1e+1
      vertex 6.5e+1 -5e+0 1e+1
      vertex 7e+1 -5e+0 1e+1
    endloop
  endfacet
  facet normal 0e+0 0e+0 1e+0
    outer loop
      vertex 8.5e+1 -5e+0 1e+1
      vertex 8.5e+1 -2.5e+1 1e+1
      vertex 9e+1 -3e+1 1e+1
    endloop
  endfacet
  facet normal 0e+0 0e+0 1e+0
    outer loop
      vertex 9e+1 0e+0 1e+1
      vertex 7e+1 -5e+0 1e+1
      vertex 7.5e+1 -5e+0 1e+1
    endloop
  endfacet
  facet normal 0e+0 0e+0 1e+0
    outer loop
      vertex 8.5e+1 -5e+0 1e+1
      vertex 9e+1 -3e+1 1e+1
      vertex 9e+1 0e+0 1e+1
    endloop
  endfacet
  facet normal 0e+0 0e+0 1e+0
    outer loop
      vertex 9e+1 0e+0 1e+1
      vertex 7.5e+1 -5e+0 1e+1
      vertex 8e+1 -5e+0 1e+1
    endloop
  endfacet
  facet normal 0e+0 0e+0 1e+0
    outer loop
      vertex 8e+1 -5e+0 1e+1
      vertex 8.5e+1 -5e+0 1e+1
      vertex 9e+1 0e+0 1e+1
    endloop
  endfacet
  facet normal 0e+0 -1e+0 0e+0
    outer loop
      vertex 5e+1 -3e+1 0e+0
      vertex 9e+1 -3e+1 0e+0
      vertex 5e+1 -3e+1 1e+1
    endloop
  endfacet
  facet normal 0e+0 -1e+0 0e+0
    outer loop
      vertex 9e+1 -3e+1 0e+0
      vertex 9e+1 -3e+1 1e+1
      vertex 5e+1 -3e+1 1e+1
    endloop
  endfacet
  facet normal 1e+0 0e+0 0e+0
    outer loop
      vertex 9e+1 -3e+1 0e+0
      vertex 9e+1 0e+0 0e+0
      vertex 9e+1 -3e+1 1e+1
    endloop
  endfacet
  facet normal 1e+0 0e+0 0e+0
    outer loop
      vertex 9e+1 0e+0 0e+0
      vertex 9e+1 0e+0 1e+1
      vertex 9e+1 -3e+1 1e+1
    endloop
  endfacet
  facet normal 0e+0 1e+0 0e+0
    outer loop
      vertex 9e+1 0e+0 0e+0
      vertex 5e+1 0e+0 0e+0
      vertex 9e+1 0e+0 1e+1
    endloop
  endfacet
  facet normal 0e+0 1e+0 0e+0
    outer loop
      vertex 5e+1 0e+0 0e+0
      vertex 5e+1 0e+0 1e+1
      vertex 9e+1 0e+0 1e+1
    endloop
  endfacet
  facet normal -1e+0 0e+0 0e+0
    outer loop
      vertex 5e+1 0e+0 0e+0
      vertex 5e+1 -3e+1 0e+0
      vertex 5e+1 0e+0 1e+1
    endloop
  endfacet
  facet normal -1e+0 0e+0 0e+0
    outer loop
      vertex 5e+1 -3e+1 0e+0
      vertex 5e+1 -3e+1 1e+1
      vertex 5e+1 0e+0 1e+1
    endloop
  endfacet
  facet normal 0e+0 -1e+0 0e+0
    outer loop
      vertex 5.5e+1 -5e+0 0e+0
      vertex 6.5e+1 -5e+0 0e+0
      vertex 5.5e+1 -5e+0 1e+1
    endloop
  endfacet
  facet normal 0e+0 -1e+0 0e+0
    outer loop
      vertex 6.5e+1 -5e+0 0e+0
      vertex 6.5e+1 -5e+0 1e+1
      vertex 5.5e+1 -5e+0 1e+1
    endloop
  endfacet
  facet normal -1e+0 0e+0 0e+0
    outer loop
      vertex 6.5e+1 -5e+0 0e+0
      vertex 6.5e+1 -2e+1 0e+0
      vertex 6.5e+1 -5e+0 1e+1
    endloop
  endfacet
  facet normal -1e+0 0e+0 0e+0
    outer loop
      vertex 6.5e+1 -2e+1 0e+0
      vertex 6.5e+1 -2e+1 1e+1
      vertex 6.5e+1 -5e+0 1e+1
    endloop
  endfacet
  facet normal 0e+0 -1e+0 0e+0
    outer loop
      vertex 6.5e+1 -2e+1 0e+0
      vertex 7e+1 -2e+1 0e+0
      vertex 6.5e+1 -2e+1 1e+1
    endloop
  endfacet
  facet normal 0e+0 -1e+0 0e+0
    outer loop
      vertex 7e+1 -2e+1 0e+0
      vertex 7e+1 -2e+1 1e+1
      vertex 6.5e+1 -2e+1 1e+1
    endloop
  endfacet
  facet normal 1e+0 0e+0 0e+0
    outer loop
      vertex 7e+1 -2e+1 0e+0
      vertex 7e+1 -5e+0 0e+0
      vertex 7e+1 -2e+1 1e+1
    endloop
  endfacet
  facet normal 1e+0 0e+0 0e+0
    outer loop
      vertex 7e+1 -5e+0 0e+0
      vertex 7e+1 -5e+0 1e+1
      vertex 7e+1 -2e+1 1e+1
    endloop
  endfacet
  facet normal 0e+0 -1e+0 0e+0
    outer loop
      vertex 7e+1 -5e+0 0e+0
      vertex 7.5e+1 -5e+0 0e+0
      vertex 7e+1 -5e+0 1e+1
    endloop
  endfacet
  facet normal 0e+0 -1e+0 0e+0
    outer loop
      vertex 7.5e+1 -5e+0 0e+0
      vertex 7.5e+1 -5e+0 1e+1
      vertex 7e+1 -5e+0 1e+1
    endloop
  endfacet
  facet normal -1e+0 0e+0 0e+0
    outer loop
      vertex 7.5e+1 -5e+0 0e+0
      vertex 7.5e+1 -2e+1 0e+0
      vertex 7.5e+1 -5e+0 1e+1
    endloop
  endfacet
  facet normal -1e+0 0e+0 0e+0
    outer loop
      vertex 7.5e+1 -2e+1 0e+0
      vertex 7.5e+1 -2e+1 1e+1
      vertex 7.5e+1 -5e+0 1e+1
    endloop
  endfacet
  facet normal 0e+0 -1e+0 0e+0
    outer loop
      vertex 7.5e+1 -2e+1 0e+0
      vertex 8e+1 -2e+1 0e+0
      vertex 7.5e+1 -2e+1 1e+1
    endloop
  endfacet
  facet normal 0e+0 -1e+0 0e+0
    outer loop
      vertex 8e+1 -2e+1 0e+0
      vertex 8e+1 -2e+1 1e+1
      vertex 7.5e+1 -2e+1 1e+1
    endloop
  endfacet
  facet normal 1e+0 0e+0 0e+0
    outer loop
      vertex 8e+1 -2e+1 0e+0
      vertex 8e+1 -5e+0 0e+0
      vertex 8e+1 -2e+1 1e+1
    endloop
  endfacet
  facet normal 1e+0 0e+0 0e+0
    outer loop
      vertex 8e+1 -5e+0 0e+0
      vertex 8e+1 -5e+0 1e+1
      vertex 8e+1 -2e+1 1e+1
    endloop
  endfacet
  facet normal 0e+0 -1e+0 0e+0
    outer loop
      vertex 8e+1 -5e+0 0e+0
      vertex 8.5e+1 -5e+0 0e+0
      vertex 8e+1 -5e+0 1e+1
    endloop
  endfacet
  facet normal 0e+0 -1e+0 0e+0
    outer loop
      vertex 8.5e+1 -5e+0 0e+0
      vertex 8.5e+1 -5e+0 1e+1
      vertex 8e+1 -5e+0 1e+1
    endloop
  endfacet
  facet normal -1e+0 0e+0 0e+0
    outer loop
      vertex 8.5e+1 -5e+0 0e+0
      vertex 8.5e+1 -2.5e+1 0e+0
      vertex 8.5e+1 -5e+0 1e+1
    endloop
  endfacet
  facet normal -1e+0 0e+0 0e+0
    outer loop
      vertex 8.5e+1 -2.5e+1 0e+0
      vertex 8.5e+1 -2.5e+1 1e+1
      vertex 8.5e+1 -5e+0 1e+1
    endloop
  endfacet
  facet normal 0e+0 1e+0 0e+0
    outer loop
      vertex 8.5e+1 -2.5e+1 0e+0
      vertex 5.5e+1 -2.5e+1 0e+0
      vertex 8.5e+1 -2.5e+1 1e+1
    endloop
  endfacet
  facet normal 0e+0 1e+0 0e+0
    outer loop
      vertex 5.5e+1 -2.5e+1 0e+0
      vertex 5.5e+1 -2.5e+1 1e+1
      vertex 8.5e+1 -2.5e+1 1e+1
    endloop
  endfacet
  facet normal 1e+0 0e+0 0e+0
    outer loop
      vertex 5.5e+1 -2.5e+1 0e+0
      vertex 5.5e+1 -5e+0 0e+0
      vertex 5.5e+1 -2.5e+1 1e+1
    endloop
  endfacet
  facet normal 1e+0 0e+0 0e+0
    outer loop
      vertex 5.5e+1 -5e+0 0e+0
      vertex 5.5e+1 -5e+0 1e+1
      vertex 5.5e+1 -2.5e+1 1e+1
    endloop
  endfacet
endsolid
